PathFileType	4	(X/Y/Z)	Patient4_TMGait_0pt6_02_right_03.trc.trc
DataRate	CameraRate	NumFrames	NumMarkers	Units	OrigDataRate	OrigDataStartFrame	OrigNumFrames
80.459770114943	80.459770114943	5	33	mm	80.459770114943	89	       141
Frame#	Time	Sacral			L.Shoulder			Chest			R.Shoulder			Neck			R.ASIS			L.ASIS			R.Thigh.Superior			R.Thigh.Lateral			R.Thigh.Inferior			R.Patella			L.Thigh.Superior			L.Thigh.Lateral			L.Thigh.Inferior			L.Patella			L.Shank.Superior			L.Shank.Lateral			L.Shank.Inferior			R.Shank.Superior			R.Shank.Lateral			R.Shank.Inferior			R.Heel			R.Midfoot.Superior			R.Midfoot.Lateral			R.Toe			L.Heel			L.Midfoot.Lateral			L.Midfoot.Superior			L.Toe			L.Elbow			L.Wrist			R.Elbow			R.Wrist			
		X1	Y1	Z1	X2	Y2	Z2	X3	Y3	Z3	X4	Y4	Z4	X5	Y5	Z5	X6	Y6	Z6	X7	Y7	Z7	X8	Y8	Z8	X9	Y9	Z9	X10	Y10	Z10	X11	Y11	Z11	X12	Y12	Z12	X13	Y13	Z13	X14	Y14	Z14	X15	Y15	Z15	X16	Y16	Z16	X17	Y17	Z17	X18	Y18	Z18	X19	Y19	Z19	X20	Y20	Z20	X21	Y21	Z21	X22	Y22	Z22	X23	Y23	Z23	X24	Y24	Z24	X25	Y25	Z25	X26	Y26	Z26	X27	Y27	Z27	X28	Y28	Z28	X29	Y29	Z29	X30	Y30	Z30	X31	Y31	Z31	X32	Y32	Z32	X33	Y33	Z33	

89	4.023714285714	732.027182074565	1009.614367642291	473.044736215195	883.586426639789	1436.816707799939	280.896038180599	1006.163311306146	1368.418441110837	427.334682066796	941.785308530345	1439.761652961915	609.264349584759	880.627771578707	1493.641653982567	435.808779281300	962.361678103239	937.073654787222	570.106173009944	932.710664106820	961.910002716316	299.146736242064	985.800547247326	727.747984638504	555.799018178348	898.293755948260	625.670940671755	623.197239147745	974.065523911719	560.127555891545	549.423216314405	957.441970976492	452.404884973811	570.961166449614	999.553209446139	762.268288808263	334.926371574451	923.217608960973	635.928660745030	280.064351711735	1017.392515697633	567.885199758317	341.951153542044	1025.807270152290	496.958203576393	352.639860906704	1000.780549917524	422.690388354747	347.340434992431	915.453282731210	303.996286872793	301.342039430115	971.948202295306	196.461524196133	372.854684425565	877.057686399593	389.571272072883	578.206301789214	755.172942207377	354.801136887671	638.785393471042	737.625440870701	245.769343397283	590.702049454730	533.379703387457	183.808753927452	564.543629691178	702.943665431307	128.467548259780	604.146715023909	593.046393284327	123.785185105308	636.216016189904	769.159624438326	30.562789691302	626.969894007537	847.799646473309	39.260838298349	418.769289045345	920.820309885153	36.562722725096	337.385386037546	1004.827887073561	97.034071036367	362.629136981212	1132.866022489905	41.806680317658	332.843949446805	810.996496851379	1085.879132666951	175.329248163898	908.503123870510	843.117799760538	165.763874385163	1003.583539391388	1088.626502867430	704.685520989958	1227.529041034186	984.215666910488	633.536824207542	
90	4.036142857143	731.637811347515	1009.980607513817	470.015977468408	885.189070853285	1437.539709787584	278.761093590007	1006.585043459921	1368.973371933323	426.102750634253	940.858285752103	1440.021958555805	607.667721466814	881.049644974948	1494.260361693608	433.782821732752	961.613251725273	937.694417475157	568.238751594370	933.289970465948	962.292771531453	297.308729751144	990.766729633826	730.380840649185	553.821171098685	906.642607598513	626.521620190732	621.647809404357	984.026509393324	562.390275762327	547.573377458555	969.103878519159	453.390072981857	569.617028438893	998.105634384370	761.034360432061	331.728670128078	919.705385530780	635.854166924665	277.767697736411	1013.174500833836	566.857002014663	339.383750198862	1020.727803813131	496.076709080259	350.290009360473	995.407414268707	421.975951318655	345.361705870761	909.300411623611	303.620447281431	300.000453851961	965.278109564904	196.071216858769	371.932787647917	887.088814882920	391.233962679309	577.035223175111	764.155689877476	360.478492961004	637.924659024422	743.375572773809	251.818281998264	590.486620107395	537.733154413717	198.283015012987	565.150489316599	704.825923902057	134.488112364447	603.965859911337	594.829583077909	135.386930088091	636.663899390583	765.898958577677	30.787265656733	626.838194776605	840.329369395619	39.236915052776	418.667530035200	913.321412262533	36.432147530274	337.224793911660	997.393971859950	96.851274177362	362.363560253389	1125.422803376934	41.505727640130	332.696225383508	815.336888996856	1086.796292264841	170.295319940484	923.061476045949	848.263823467590	160.740814250105	997.353165656946	1087.600495018787	703.270526624472	1214.603043899270	963.914445647490	638.476550623893	
91	4.048571428571	731.075277083418	1010.271113602547	467.201807820857	886.629586163975	1438.074846927471	276.731845818906	1006.875217696724	1369.381089697647	424.959619099696	939.887611383352	1440.205395414141	606.170887638697	881.448275884389	1494.790014450321	431.799826194654	960.703886042680	938.203273049090	566.539220033570	933.596407930034	962.589946206551	295.618310364106	995.557762083995	733.247014850382	551.594560924264	915.150869020806	627.660216807696	620.113460631608	993.950157090050	565.087360363214	545.560493605575	980.993599725620	454.872514925406	568.037686102125	996.473939093042	759.877689108263	328.648287032872	916.039830118662	635.845679298038	275.569998884722	1008.832931862650	565.894552224195	336.869652130229	1015.551556728598	495.248018544218	347.967327210599	989.944282541063	421.316618206405	343.413205255085	903.051485804599	303.302105836006	298.692043315862	958.569943591144	195.719385747827	370.994360509486	897.531878054429	393.219830585960	575.670312810539	773.747768382003	366.136478317160	636.890175528656	749.958046170952	257.956069767937	589.966990271872	543.281284068321	211.971586100785	565.338231421780	707.923134258258	140.876061932351	603.507931720533	598.024450722027	146.729928653491	636.790081726175	764.337384625276	31.822339293019	626.616796972857	832.862812275478	39.237979411346	418.541752843702	905.832122791595	36.320504446907	337.054840550829	989.970797099860	96.686831585137	362.075038988327	1117.980532322325	41.226157212198	332.542516692664	819.935993589369	1087.505189506574	165.309602423598	937.677365621714	853.666252007611	155.835054953492	990.853172897229	1086.674235514275	702.374341635954	1199.635881524064	944.712047002149	643.875316683110	
92	4.061000000000	730.368404744988	1010.551076356001	464.615221804545	887.887551862689	1438.482075225872	274.821034840775	1007.032122577467	1369.694305930568	423.897356876515	938.896348098476	1440.368636988301	604.771404783985	881.835144252950	1495.280660802666	429.864964053829	959.662415146970	938.682710245602	565.010573653250	933.627606594104	962.846370332796	294.072322179850	1000.077396615518	736.383115100825	549.148770640957	923.665088604025	629.156164680467	618.622277249987	1003.704424512708	568.270808052652	543.461168510612	992.991456229078	456.916996732703	566.332510112520	994.665425861178	758.824845195134	325.719474869019	912.205238686918	635.915940854352	273.526438070289	1004.353614801908	565.004718669242	334.462601757965	1010.263427409497	494.488689585246	345.746271192198	984.374058384976	420.737338173438	341.550763569923	896.695813328700	303.068330687510	297.448566365014	951.811810643947	195.426943690865	370.065538671974	908.292258121404	395.568624938561	574.195831479532	783.821175927827	371.691623365069	635.694630737752	757.385254305097	264.039143732731	589.166460771869	549.981849789302	224.435908484339	565.043586099251	712.377985629300	147.421641493828	602.795258839780	602.688017258718	157.407438462978	636.537192628329	764.804554615012	33.757893756105	626.283871788190	825.397188161970	39.271278443892	418.391242653529	898.351750962441	36.233517861489	336.878986737437	982.554060356943	96.553704169812	361.765525308398	1110.534509454649	40.982890528282	332.383154596587	824.815506208590	1088.056572769413	160.438426060134	952.267430539810	859.332771044960	151.070579877421	983.991811433484	1085.919527373498	702.014315375337	1182.693147822350	926.836604433297	649.699448795560	
93	4.073428571429	729.549374915729	1010.879498703714	462.262466129043	888.964322504940	1438.821251471061	273.033215096688	1007.062127301254	1369.964728217613	422.911433147424	937.896790759791	1440.564788335905	603.463306804744	882.218476281232	1495.779380005635	427.980953038925	958.522981494112	939.215545914983	563.661911461919	933.394281091821	963.102419288906	292.673621631111	1004.258670362806	739.815078166452	546.556647597127	932.037167149361	631.057365399677	617.209336964185	1013.178688346160	571.970082058060	541.367710308458	1004.976958140716	459.569864269631	564.609886395133	992.674784042330	757.883681063311	322.987984367178	908.192191267018	636.073434990679	271.678947746022	999.713536733976	564.190617936300	332.220842515668	1004.833712953290	493.808705370681	343.691619127568	978.668860533517	420.256684971768	339.820865618907	890.214675029337	302.936402748827	296.296190978654	944.988401840479	195.209348021070	369.168262638691	919.278271174673	398.303194267574	572.697048013771	794.253466792885	377.047916049778	634.364174412032	765.663282119252	269.905826050426	588.124741001641	557.783492856716	235.285595021567	564.243683462830	718.307583686583	153.883243739074	601.865954096525	608.850152340610	167.034185660067	635.882084966887	767.572625535981	36.559507277872	625.830958312516	817.928068863822	39.340329947248	418.218208881808	890.876951443102	36.173017687032	336.700563305992	975.138657992747	96.458649482899	361.438032229880	1103.079492876359	40.783624837717	332.219578152336	829.966445138810	1088.511736991531	155.744848719732	966.749830309732	865.277478907164	146.471948633320	976.686449205393	1085.413053096788	702.174563505233	1163.900881811913	910.484827036212	655.903851539401	
